<svg xmlns="http://www.w3.org/2000/svg" xmlns:xlink="http://www.w3.org/1999/xlink" width="277" height="575" viewBox="0 0 277 575">
  <defs>
    <clipPath id="clip-path">
      <rect id="Rectangle_2516" data-name="Rectangle 2516" width="277" height="575" transform="translate(0 1088)" fill="none"/>
    </clipPath>
    <clipPath id="clip-path-2">
      <path id="Path_3" data-name="Path 3" d="M659.1,1629l103.47-41.77L579.432,1294.41,124.164,1409.261l79.672,143.823Z" transform="translate(0 -1104)" fill="#fff"/>
    </clipPath>
    <clipPath id="clip-path-3">
      <path id="Path_4" data-name="Path 4" d="M334.208,2046.637,354.9,1876.946l428.366-316.618-14.486,481.135Z" transform="translate(0 -1104)" fill="#fff"/>
    </clipPath>
    <filter id="Ellipse_52" x="148.858" y="171.1" width="169.349" height="169.349" filterUnits="userSpaceOnUse">
      <feOffset dy="10" input="SourceAlpha"/>
      <feGaussianBlur stdDeviation="15" result="blur"/>
      <feFlood flood-color="#595a5a" flood-opacity="0.161"/>
      <feComposite operator="in" in2="blur"/>
      <feComposite in="SourceGraphic"/>
    </filter>
    <filter id="Ellipse_52-2" x="-352.946" y="38.774" width="151.675" height="151.675" filterUnits="userSpaceOnUse">
      <feOffset dy="10" input="SourceAlpha"/>
      <feGaussianBlur stdDeviation="15" result="blur-2"/>
      <feFlood flood-color="#595a5a" flood-opacity="0.161"/>
      <feComposite operator="in" in2="blur-2"/>
      <feComposite in="SourceGraphic"/>
    </filter>
  </defs>
  <g id="Mask_Group_5" data-name="Mask Group 5" transform="translate(0 -1088)" clip-path="url(#clip-path)">
    <g id="Group_2053" data-name="Group 2053" transform="translate(-3507.968 518.124) rotate(-121)">
      <g id="Ellipse_57" data-name="Ellipse 57" transform="translate(-2807.164 2231)" fill="none" stroke="#2b455e" stroke-width="3" stroke-dasharray="20">
        <circle cx="290.5" cy="290.5" r="290.5" stroke="none"/>
        <circle cx="290.5" cy="290.5" r="289" fill="none"/>
      </g>
      <g id="Mask_Group_2" data-name="Mask Group 2" transform="translate(-2971.164 1930)" clip-path="url(#clip-path-2)">
        <g id="Ellipse_55" data-name="Ellipse 55" transform="translate(164 301)" fill="none" stroke="#c00000" stroke-width="3" stroke-dasharray="20">
          <circle cx="290.5" cy="290.5" r="290.5" stroke="none"/>
          <circle cx="290.5" cy="290.5" r="289" fill="none"/>
        </g>
      </g>
      <g id="Mask_Group_3" data-name="Mask Group 3" transform="translate(-2971.164 1930)" clip-path="url(#clip-path-3)">
        <g id="Ellipse_56" data-name="Ellipse 56" transform="translate(164 301)" fill="none" stroke="#0a66c2" stroke-width="3" stroke-dasharray="20">
          <circle cx="290.5" cy="290.5" r="290.5" stroke="none"/>
          <circle cx="290.5" cy="290.5" r="289" fill="none"/>
        </g>
      </g>
      <g id="Group_2046" data-name="Group 2046" transform="matrix(-0.53, 0.848, -0.848, -0.53, -2446.293, 2676.531)">
        <g transform="matrix(1, -0.02, 0.02, 1, -48.79, -147.66)" filter="url(#Ellipse_52)">
          <circle id="Ellipse_52-3" data-name="Ellipse 52" cx="39" cy="39" r="39" transform="translate(195.22 206.1) rotate(1)" fill="#0a66c2"/>
        </g>
        <g id="shield-check" transform="translate(174.114 76.099)">
          <path id="Path_1" data-name="Path 1" d="M26.989,3.225,17.547.077a1.507,1.507,0,0,0-.952,0L7.153,3.225A7.525,7.525,0,0,0,2,10.373v7.712c0,11.4,13.865,17.693,14.459,17.956a1.507,1.507,0,0,0,1.224,0c.594-.262,14.459-6.557,14.459-17.956V10.373a7.525,7.525,0,0,0-5.153-7.148Zm2.139,14.86c0,8.221-9.523,13.614-12.057,14.9C14.535,31.7,5.014,26.328,5.014,18.085V10.373A4.521,4.521,0,0,1,8.106,6.084L17.071,3.1l8.964,2.989a4.521,4.521,0,0,1,3.093,4.289Z" transform="translate(-2 0)" fill="#fff"/>
          <path id="Path_2" data-name="Path 2" d="M19.443,8.449l-6.312,6.33L9.749,11.252a1.507,1.507,0,1,0-2.172,2.089l3.475,3.617a2.821,2.821,0,0,0,2.027.9h.05a2.823,2.823,0,0,0,2.012-.833L21.58,10.59a1.513,1.513,0,1,0-2.137-2.142Z" transform="translate(0.601 4.061)" fill="#fff"/>
        </g>
      </g>
      <g id="Group_2045" data-name="Group 2045" transform="matrix(-0.438, 0.899, -0.899, -0.438, -2616.208, 2247.32)">
        <circle id="Ellipse_52-4" data-name="Ellipse 52" cx="26" cy="26" r="26" transform="translate(150 55)" fill="#2b455e"/>
        <path id="lightbulb-dollar" d="M19.117,2.457A9.675,9.675,0,0,0,3.081,8.408a9.607,9.607,0,0,0,3,8.342,6.732,6.732,0,0,1,2.292,4.908v.173A3.97,3.97,0,0,0,12.341,25.8h.665a3.97,3.97,0,0,0,3.966-3.966v-.59a5.722,5.722,0,0,1,2.077-4.3,9.668,9.668,0,0,0,.067-14.486Zm-6.111,21.19h-.665a1.818,1.818,0,0,1-1.817-1.817v-.173c0-.054,0-.107,0-.16h4.3v.333a1.819,1.819,0,0,1-1.817,1.817Zm4.626-8.321a8.24,8.24,0,0,0-2.554,4.021H10.19a9.3,9.3,0,0,0-2.642-4.172A7.52,7.52,0,0,1,11.794,2.2a8.027,8.027,0,0,1,.89-.051,7.436,7.436,0,0,1,5,1.911,7.516,7.516,0,0,1-.052,11.266ZM16.973,12.9a3.229,3.229,0,0,1-3.225,3.225V17.2a1.075,1.075,0,0,1-2.15,0V16.123h-.288a3.236,3.236,0,0,1-2.793-1.611,1.074,1.074,0,1,1,1.86-1.076,1.082,1.082,0,0,0,.932.537h2.438A1.076,1.076,0,0,0,14.823,12.9a.826.826,0,0,0-.692-.817l-3.269-.545A2.968,2.968,0,0,1,8.373,8.6,3.229,3.229,0,0,1,11.6,5.374V4.3a1.075,1.075,0,0,1,2.15,0V5.374h.288a3.237,3.237,0,0,1,2.793,1.612,1.074,1.074,0,1,1-1.86,1.076,1.08,1.08,0,0,0-.932-.537H11.6A1.076,1.076,0,0,0,10.524,8.6a.826.826,0,0,0,.692.817l3.269.545A2.968,2.968,0,0,1,16.973,12.9Z" transform="translate(163.001 67.998)" fill="#fff"/>
      </g>
      <g id="Group_2044" data-name="Group 2044" transform="translate(-2421.435 2495.476) rotate(-47)">
        <g transform="matrix(-0.98, 0.21, -0.21, -0.98, -73.3, 240.94)" filter="url(#Ellipse_52-2)">
          <circle id="Ellipse_52-5" data-name="Ellipse 52" cx="26" cy="26" r="26" transform="translate(-257.08 135.45) rotate(-168)" fill="#c00000"/>
        </g>
        <path id="garage" d="M22.017,5.831l-7.5-5.06a4.476,4.476,0,0,0-5.034,0l-7.5,5.06A4.493,4.493,0,0,0,0,9.56V19.5A4.505,4.505,0,0,0,4.5,24h15A4.505,4.505,0,0,0,24,19.5V9.561a4.491,4.491,0,0,0-1.983-3.729ZM19,23H5V12.5A2.5,2.5,0,0,1,7.5,10h9A2.5,2.5,0,0,1,19,12.5Zm4-3.5a3.5,3.5,0,0,1-3,3.464V12.5A3.5,3.5,0,0,0,16.5,9h-9A3.5,3.5,0,0,0,4,12.5V22.964A3.5,3.5,0,0,1,1,19.5V9.561a3.494,3.494,0,0,1,1.542-2.9l7.5-5.061a3.479,3.479,0,0,1,3.915,0l7.5,5.061A3.5,3.5,0,0,1,23,9.561Zm-9,0a.5.5,0,0,1-.5.5h-3a.5.5,0,0,1,0-1h3A.5.5,0,0,1,14,19.5Z" transform="translate(164 69.004)" fill="#fff" stroke="#fff" stroke-width="1"/>
      </g>
    </g>
  </g>
</svg>
